<svg xmlns="http://www.w3.org/2000/svg" width="150" height="48" viewBox="0 0 150 48">
  <path fill="#333333" fill-rule="evenodd" d="M17.718,16.925 C17.833,16.925 17.879,16.971 17.925,17.063 L20.064,22.721 C20.202,23.089 20.064,23.296 19.926,23.342 C19.834,23.365 19.765,23.411 19.765,23.503 C19.765,23.641 20.018,23.641 20.455,23.664 C22.042,23.71 23.721,23.71 24.066,23.71 C24.319,23.71 24.526,23.664 24.526,23.526 C24.526,23.411 24.411,23.388 24.273,23.388 C24.089,23.388 23.721,23.365 23.376,23.25 C22.893,23.112 22.226,22.744 21.398,20.697 C19.995,17.201 16.384,7.702 16.039,6.828 C15.763,6.115 15.671,6 15.533,6 C15.395,6 15.303,6.138 15.027,6.897 L9.806,21.18 C9.392,22.33 8.932,23.204 7.874,23.342 C7.69,23.365 7.483,23.388 7.322,23.388 C7.115,23.388 7,23.434 7,23.526 C7,23.664 7.138,23.71 7.437,23.71 C8.518,23.71 9.783,23.641 10.036,23.641 C10.289,23.641 11.209,23.71 11.761,23.71 C11.968,23.71 12.175,23.664 12.175,23.526 C12.175,23.434 12.106,23.388 11.876,23.388 L11.669,23.388 C11.278,23.388 10.841,23.181 10.841,22.721 C10.841,22.307 10.956,21.755 11.163,21.18 L12.543,17.109 C12.589,16.994 12.658,16.925 12.773,16.925 L17.718,16.925 Z M13.026,16.097 C12.957,16.097 12.911,16.051 12.957,15.936 L14.981,9.726 C15.096,9.381 15.211,9.381 15.326,9.726 L17.511,15.936 C17.534,16.028 17.534,16.097 17.419,16.097 L13.026,16.097 Z M29.448,14.579 C29.448,11.543 29.425,11.037 29.471,10.416 C29.517,9.749 29.655,9.381 30.299,9.289 C30.529,9.266 30.759,9.243 30.92,9.243 C31.058,9.243 31.173,9.174 31.173,9.082 C31.173,8.99 31.104,8.921 30.874,8.921 C30.23,8.921 28.827,8.99 28.505,8.99 C28.459,8.99 27.079,8.921 26.113,8.921 C25.883,8.921 25.768,8.967 25.768,9.082 C25.768,9.174 25.86,9.243 26.021,9.243 C26.205,9.243 26.458,9.243 26.596,9.266 C27.378,9.358 27.47,9.772 27.516,10.416 C27.562,11.037 27.562,11.543 27.562,14.579 L27.562,18.029 C27.562,19.8 27.608,21.387 27.47,22.261 C27.401,22.813 27.263,23.273 26.872,23.342 C26.688,23.388 26.504,23.388 26.32,23.388 C26.136,23.388 26.067,23.457 26.067,23.526 C26.067,23.664 26.205,23.71 26.435,23.71 C27.24,23.71 27.7,23.641 28.459,23.641 C30.759,23.641 32.484,23.756 34.048,23.756 C35.152,23.756 35.129,23.641 35.267,23.181 C35.405,22.652 35.543,21.341 35.543,21.111 C35.543,20.881 35.497,20.812 35.405,20.812 C35.29,20.812 35.244,20.904 35.221,21.088 C35.175,21.433 35.014,21.893 34.784,22.238 C34.278,22.882 33.358,22.882 32.346,22.882 C30.759,22.882 30.299,22.744 29.931,22.422 C29.54,22.054 29.448,20.72 29.448,18.075 L29.448,14.579 Z M46.353,18.098 C46.445,18.098 46.491,18.144 46.537,18.213 L48.354,22.836 C48.492,23.181 48.354,23.296 48.262,23.342 C48.17,23.365 48.101,23.434 48.101,23.503 C48.101,23.618 48.239,23.641 48.676,23.664 C50.217,23.71 51.942,23.71 52.172,23.71 C52.425,23.71 52.517,23.664 52.517,23.549 C52.517,23.434 52.402,23.388 52.241,23.388 C52.08,23.388 51.758,23.388 51.459,23.273 C51.137,23.158 50.47,22.859 49.711,21.042 C48.492,18.167 45.364,10.14 45.042,9.381 C44.789,8.737 44.697,8.645 44.582,8.645 C44.421,8.645 44.352,8.76 44.099,9.427 L39.499,21.548 C39.108,22.514 38.717,23.273 37.728,23.365 C37.59,23.388 37.383,23.388 37.268,23.388 C37.084,23.388 36.992,23.457 36.992,23.549 C36.992,23.664 37.107,23.71 37.36,23.71 C38.326,23.71 39.338,23.641 39.568,23.641 C39.821,23.641 40.879,23.71 41.385,23.71 C41.546,23.71 41.73,23.664 41.73,23.549 C41.73,23.457 41.661,23.388 41.454,23.388 L41.293,23.388 C40.787,23.388 40.534,23.204 40.534,22.79 C40.534,22.422 40.695,21.801 40.925,21.157 L41.937,18.282 C41.983,18.167 42.052,18.098 42.167,18.098 L46.353,18.098 Z M42.397,17.293 C42.351,17.293 42.305,17.247 42.351,17.155 L44.076,12.072 C44.191,11.75 44.214,11.75 44.329,12.072 L46.146,17.155 C46.169,17.224 46.169,17.293 46.077,17.293 L42.397,17.293 Z M54.702,20.835 C54.702,22.514 54.587,23.135 54.081,23.296 C53.782,23.388 53.529,23.388 53.368,23.388 C53.138,23.388 53.046,23.457 53.046,23.549 C53.046,23.687 53.184,23.71 53.391,23.71 C54.38,23.71 55.231,23.641 55.392,23.641 C55.553,23.641 56.381,23.71 57.623,23.71 C57.876,23.71 57.991,23.664 57.991,23.549 C57.991,23.457 57.899,23.388 57.715,23.388 C57.531,23.388 57.14,23.388 56.772,23.296 C56.197,23.158 56.059,22.56 56.013,20.973 L55.714,11.98 C56.289,12.578 58.589,14.97 60.981,17.454 C62.982,19.409 66.179,22.583 66.271,22.629 C67.398,23.687 67.628,23.848 67.789,23.848 C67.95,23.848 67.996,23.733 67.996,22.583 L68.042,11.037 C68.042,9.657 68.203,9.427 68.732,9.312 C68.985,9.266 69.169,9.266 69.307,9.243 C69.445,9.22 69.514,9.151 69.514,9.059 C69.514,8.944 69.445,8.921 69.192,8.921 C68.295,8.921 67.582,8.99 67.352,8.99 C67.145,8.99 66.179,8.921 65.19,8.921 C64.96,8.921 64.776,8.944 64.776,9.059 C64.776,9.151 64.822,9.243 65.052,9.243 C65.213,9.243 65.558,9.266 65.949,9.335 C66.57,9.496 66.708,9.91 66.731,11.152 L66.984,20.72 C66.386,20.168 64.086,17.799 62.292,16.051 C59.072,12.762 55.875,9.496 55.668,9.266 C55.507,9.105 55.116,8.645 54.955,8.645 C54.771,8.645 54.702,8.875 54.702,9.588 C54.725,13.406 54.702,9.864 54.702,20.835 Z M84.464,12.992 C84.464,9.404 84.464,8.76 84.51,8.024 C84.556,7.219 84.74,6.759 85.361,6.69 C85.591,6.667 85.614,6.667 85.867,6.644 C86.074,6.621 86.12,6.575 86.12,6.483 C86.12,6.368 86.005,6.322 85.752,6.322 C85.062,6.322 83.613,6.391 83.498,6.391 C83.383,6.391 81.842,6.322 81.083,6.322 C80.83,6.322 80.715,6.368 80.715,6.506 C80.715,6.598 80.784,6.644 80.968,6.644 C81.129,6.644 81.543,6.667 81.796,6.736 C82.302,6.851 82.532,7.242 82.578,8.024 C82.624,8.76 82.624,9.404 82.624,12.992 L82.624,17.04 C82.624,19.248 82.624,21.065 82.509,22.031 C82.417,22.698 82.279,23.227 81.819,23.319 C81.612,23.365 81.359,23.388 81.221,23.388 C81.014,23.388 80.968,23.48 80.968,23.549 C80.968,23.687 81.083,23.71 81.336,23.71 C82.026,23.71 83.383,23.641 83.498,23.641 C83.613,23.641 85.062,23.71 86.327,23.71 C86.58,23.71 86.672,23.664 86.672,23.549 C86.672,23.48 86.603,23.388 86.396,23.388 C86.258,23.388 85.798,23.342 85.476,23.296 C84.786,23.204 84.648,22.698 84.579,22.031 C84.464,21.065 84.464,19.248 84.464,17.04 L84.464,14.671 C86.488,17.086 90.628,21.525 92.008,22.606 C93.089,23.457 93.618,23.71 95.619,23.71 L97.321,23.71 C97.574,23.71 97.666,23.664 97.666,23.549 C97.666,23.434 97.528,23.388 97.344,23.388 C97.114,23.388 96.884,23.365 96.677,23.319 C95.573,23.112 94.768,22.606 92.882,20.835 C91.801,19.823 87.615,15.568 86.166,13.981 C86.764,13.314 89.386,10.715 91.41,8.76 C92.79,7.426 93.227,7.15 93.802,6.92 C94.124,6.782 94.538,6.69 94.975,6.644 C95.182,6.621 95.228,6.575 95.228,6.483 C95.228,6.391 95.159,6.322 94.837,6.322 C94.469,6.322 93.112,6.391 92.399,6.391 C91.617,6.391 91.686,6.322 91.019,6.322 C90.812,6.322 90.674,6.368 90.674,6.46 C90.674,6.552 90.72,6.598 90.881,6.667 C91.065,6.736 91.18,6.92 91.18,7.104 C91.18,7.38 91.088,7.61 89.708,9.036 C88.305,10.485 85.177,13.774 84.464,14.464 L84.464,12.992 Z M101.875,14.579 C101.875,11.543 101.852,11.037 101.898,10.416 C101.944,9.749 102.082,9.381 102.726,9.289 C102.956,9.266 103.186,9.243 103.347,9.243 C103.485,9.243 103.6,9.174 103.6,9.082 C103.6,8.99 103.531,8.921 103.301,8.921 C102.657,8.921 101.254,8.99 100.932,8.99 C100.886,8.99 99.506,8.921 98.54,8.921 C98.31,8.921 98.195,8.967 98.195,9.082 C98.195,9.174 98.287,9.243 98.448,9.243 C98.632,9.243 98.885,9.243 99.023,9.266 C99.805,9.358 99.897,9.772 99.943,10.416 C99.989,11.037 99.989,11.543 99.989,14.579 L99.989,18.029 C99.989,19.8 100.035,21.387 99.897,22.261 C99.828,22.813 99.69,23.273 99.299,23.342 C99.115,23.388 98.931,23.388 98.747,23.388 C98.563,23.388 98.494,23.457 98.494,23.526 C98.494,23.664 98.632,23.71 98.862,23.71 C99.667,23.71 100.127,23.641 100.886,23.641 C103.186,23.641 104.911,23.756 106.475,23.756 C107.579,23.756 107.556,23.641 107.694,23.181 C107.832,22.652 107.97,21.341 107.97,21.111 C107.97,20.881 107.924,20.812 107.832,20.812 C107.717,20.812 107.671,20.904 107.648,21.088 C107.602,21.433 107.441,21.893 107.211,22.238 C106.705,22.882 105.785,22.882 104.773,22.882 C103.186,22.882 102.726,22.744 102.358,22.422 C101.967,22.054 101.875,20.72 101.875,18.075 L101.875,14.579 Z M112.662,14.579 C112.662,11.543 112.662,11.014 112.685,10.393 C112.731,9.749 112.823,9.358 113.375,9.289 C113.559,9.266 113.743,9.243 113.881,9.243 C113.996,9.243 114.157,9.197 114.157,9.082 C114.157,8.967 114.088,8.921 113.835,8.921 C113.214,8.921 111.857,8.99 111.673,8.99 C111.512,8.99 110.27,8.921 109.281,8.921 C109.028,8.921 108.936,8.967 108.936,9.105 C108.936,9.174 109.028,9.243 109.189,9.243 C109.373,9.243 109.649,9.266 109.787,9.289 C110.5,9.381 110.615,9.772 110.638,10.393 C110.707,11.014 110.707,11.543 110.707,14.579 L110.707,17.431 C110.707,20.283 111.42,21.663 112.409,22.583 C113.904,23.963 116.066,23.963 116.71,23.963 C117.952,23.963 119.424,23.848 120.919,22.583 C122.552,21.18 122.782,18.696 122.782,16.626 L122.782,14.579 C122.782,11.566 122.782,11.037 122.805,10.416 C122.851,9.749 122.943,9.335 123.587,9.266 C123.817,9.243 123.863,9.243 124.001,9.243 C124.139,9.243 124.231,9.174 124.231,9.082 C124.231,8.967 124.139,8.921 123.909,8.921 C123.265,8.921 122.276,8.99 122.161,8.99 C122.069,8.99 120.919,8.921 119.93,8.921 C119.723,8.921 119.608,8.967 119.608,9.105 C119.608,9.174 119.7,9.243 119.838,9.243 C120.045,9.243 120.321,9.266 120.482,9.289 C121.218,9.404 121.287,9.749 121.333,10.416 C121.379,11.037 121.379,11.566 121.379,14.579 L121.379,17.017 C121.379,19.018 121.172,20.766 120.252,21.824 C119.378,22.836 118.297,23.158 117.101,23.158 C116.158,23.158 115.054,22.974 114.065,22.1 C113.191,21.318 112.662,20.122 112.662,17.316 L112.662,14.579 Z M140.078,19.938 C140.078,19.11 140.078,18.535 140.124,17.868 C140.17,17.201 140.308,16.787 140.86,16.718 C141.044,16.695 141.09,16.695 141.251,16.695 C141.458,16.695 141.527,16.603 141.527,16.534 C141.527,16.419 141.435,16.373 141.205,16.373 C140.584,16.373 139.227,16.419 139.135,16.419 C139.043,16.419 137.709,16.373 136.789,16.373 C136.536,16.373 136.444,16.419 136.444,16.534 C136.444,16.603 136.536,16.695 136.72,16.695 C136.904,16.695 137.134,16.718 137.272,16.741 C138.077,16.856 138.192,17.155 138.192,18.673 L138.192,21.985 C138.192,22.307 138.031,22.537 137.801,22.675 C137.272,22.951 136.26,23.066 135.616,23.066 C133.615,23.066 131.913,22.399 130.395,20.927 C129.797,20.352 128.302,18.328 128.302,15.591 C128.302,13.314 129.061,11.566 130.234,10.669 C131.775,9.496 133.224,9.45 134.466,9.45 C137.042,9.45 138.698,10.301 139.227,11.06 C139.572,11.566 139.664,12.279 139.664,12.486 C139.687,12.624 139.71,12.762 139.825,12.762 C139.986,12.762 140.009,12.67 140.009,12.348 C140.009,10.324 140.17,9.634 140.17,9.358 C140.17,9.266 140.17,9.174 139.986,9.174 C139.503,9.151 138.606,9.036 138.238,8.967 C137.41,8.829 136.421,8.645 134.949,8.645 C133.546,8.645 131.591,8.783 129.82,9.818 C127.934,10.945 126.347,13.176 126.347,16.304 C126.347,18.926 127.589,20.858 128.831,21.893 C131.177,23.848 134.075,23.963 135.57,23.963 C136.697,23.963 138.537,23.733 139.802,23.089 C140.055,22.951 140.078,22.928 140.078,22.008 L140.078,19.938 Z M10.736,37.6185 C10.736,39.2985 10.736,40.681 10.6485,41.416 C10.5785,41.9235 10.491,42.3085 10.141,42.3785 C9.9835,42.4135 9.7735,42.4485 9.616,42.4485 C9.511,42.4485 9.476,42.501 9.476,42.5535 C9.476,42.6585 9.5635,42.6935 9.756,42.6935 C10.281,42.6935 11.3835,42.641 11.436,42.641 C11.5235,42.641 12.626,42.6935 13.5885,42.6935 C13.781,42.6935 13.8685,42.641 13.8685,42.5535 C13.8685,42.501 13.8335,42.4485 13.7285,42.4485 C13.571,42.4485 13.186,42.4135 12.941,42.3785 C12.416,42.3085 12.311,41.9235 12.2585,41.416 C12.171,40.681 12.171,39.2985 12.171,37.6185 L12.171,30.426 C12.171,30.251 12.206,30.1285 12.311,30.0935 C12.4685,30.0235 12.766,29.9885 13.0635,29.9885 C13.466,29.9885 14.5335,29.9185 15.461,30.8635 C16.3885,31.8085 16.441,32.981 16.441,33.4185 C16.441,35.256 15.111,36.411 13.4135,36.411 C13.046,36.411 12.941,36.4285 12.941,36.5685 C12.941,36.656 13.046,36.691 13.1335,36.691 C13.221,36.7085 13.4135,36.7085 13.501,36.7085 C15.986,36.7085 17.806,35.0285 17.806,32.7535 C17.806,31.616 17.316,30.8285 16.931,30.461 C16.651,30.1985 15.8635,29.4635 13.676,29.4635 C12.871,29.4635 11.856,29.516 11.471,29.516 C11.331,29.516 10.281,29.4635 9.4935,29.4635 C9.301,29.4635 9.2135,29.4985 9.2135,29.6035 C9.2135,29.6735 9.2835,29.7085 9.3535,29.7085 C9.511,29.7085 9.8085,29.726 9.9485,29.761 C10.526,29.8835 10.666,30.1635 10.701,30.7585 C10.736,31.3185 10.736,31.8085 10.736,34.5385 L10.736,37.6185 Z M22.6185,36.131 C22.566,36.131 22.5135,36.131 22.5135,36.0435 L22.5135,35.7285 C22.5135,33.4185 22.5135,33.0335 22.531,32.561 C22.566,32.071 22.671,31.7735 23.1085,31.7035 C23.301,31.6685 23.3535,31.6685 23.4585,31.6685 C23.5635,31.6685 23.6335,31.6335 23.6335,31.5635 C23.6335,31.476 23.546,31.441 23.371,31.441 C22.881,31.441 21.866,31.4935 21.796,31.4935 C21.5685,31.4935 20.7285,31.441 19.976,31.441 C19.801,31.441 19.7135,31.4585 19.7135,31.5635 C19.7135,31.616 19.7835,31.6685 19.906,31.6685 C20.046,31.6685 20.221,31.686 20.3785,31.7035 C20.886,31.756 21.0085,32.0885 21.0435,32.5435 C21.0785,33.016 21.0785,33.471 21.0785,35.781 L21.0785,38.371 C21.0785,39.806 21.096,40.9785 20.991,41.6085 C20.9385,41.9935 20.8685,42.326 20.5535,42.396 C20.4135,42.431 20.2735,42.4485 20.1335,42.4485 C19.976,42.4485 19.941,42.5185 19.941,42.571 C19.941,42.6585 20.046,42.6935 20.221,42.6935 C20.676,42.6935 21.7435,42.641 21.796,42.641 C21.8835,42.641 22.916,42.6935 23.8085,42.6935 C23.966,42.6935 24.036,42.641 24.036,42.571 C24.036,42.501 23.9485,42.4485 23.826,42.4485 C23.686,42.4485 23.4235,42.431 23.196,42.396 C22.741,42.3435 22.6535,41.9935 22.601,41.6085 C22.5135,40.9785 22.5135,39.841 22.5135,38.4235 L22.5135,36.866 C22.5135,36.7785 22.5485,36.761 22.601,36.761 L28.9535,36.761 C29.006,36.761 29.0585,36.796 29.0585,36.866 L29.0585,38.4235 C29.0585,39.841 29.0585,40.9435 28.971,41.5735 C28.9185,41.976 28.831,42.361 28.5335,42.4135 C28.3935,42.4485 28.271,42.4485 28.131,42.4485 C27.991,42.4485 27.9385,42.501 27.9385,42.5535 C27.9385,42.6585 28.026,42.6935 28.201,42.6935 C28.6735,42.6935 29.6885,42.641 29.7585,42.641 C29.846,42.641 30.861,42.6935 31.736,42.6935 C31.911,42.6935 31.9985,42.6585 31.9985,42.571 C31.9985,42.501 31.911,42.4485 31.771,42.4485 C31.6135,42.4485 31.386,42.431 31.1585,42.396 C30.7035,42.3435 30.616,41.9935 30.5635,41.5735 C30.4935,40.9435 30.4935,39.806 30.4935,38.371 L30.4935,35.746 C30.4935,33.436 30.4935,33.0335 30.511,32.561 C30.546,32.071 30.616,31.791 31.0885,31.721 C31.1935,31.7035 31.3335,31.686 31.4385,31.686 C31.5785,31.686 31.631,31.616 31.631,31.5635 C31.631,31.4585 31.526,31.441 31.351,31.441 C30.826,31.441 29.846,31.4935 29.776,31.4935 C29.706,31.4935 28.6735,31.441 27.9385,31.441 C27.781,31.441 27.6935,31.4585 27.6935,31.5635 C27.6935,31.6335 27.781,31.686 27.9035,31.686 C28.0435,31.686 28.2185,31.7035 28.341,31.721 C28.9185,31.826 28.9885,32.071 29.0235,32.5435 C29.0585,33.016 29.0585,33.4185 29.0585,35.7285 L29.0585,36.0435 C29.0585,36.131 29.006,36.131 28.9535,36.131 L22.6185,36.131 Z M39.996,42.886 C43.7235,42.886 46.191,40.156 46.191,36.8135 C46.191,33.296 43.5485,31.231 40.0835,31.231 C35.761,31.231 33.9585,34.7135 33.9585,37.041 C33.9585,39.701 35.7085,42.886 39.996,42.886 Z M40.4335,42.291 C37.4935,42.291 35.586,40.016 35.586,36.586 C35.586,33.2785 37.546,31.7735 39.9785,31.7735 C42.376,31.7735 44.546,33.7335 44.546,37.251 C44.546,41.696 41.606,42.291 40.4335,42.291 Z M53.051,32.1235 C53.5585,32.1235 54.101,32.141 54.766,32.141 C56.5335,32.1585 56.761,32.3335 56.831,33.0335 C56.8485,33.2085 56.8485,33.226 56.8485,33.2785 C56.8485,33.4185 56.8835,33.4885 56.971,33.4885 C57.0235,33.4885 57.0935,33.436 57.0935,33.2785 C57.0935,33.1385 57.1285,31.9835 57.1285,31.4935 C57.1285,31.4235 57.0935,31.336 57.0235,31.336 C56.971,31.336 56.9185,31.3535 56.691,31.406 C56.446,31.4585 55.921,31.4935 55.431,31.4935 L49.691,31.4935 C49.6735,31.4935 49.1835,31.476 48.571,31.406 C48.256,31.371 47.9235,31.2135 47.801,31.2135 C47.7485,31.2135 47.696,31.2835 47.6435,31.4935 C47.5385,31.966 47.276,33.121 47.2935,33.226 C47.2935,33.3135 47.311,33.3835 47.381,33.3835 C47.451,33.3835 47.486,33.366 47.5385,33.2435 C47.5735,33.156 47.6435,32.946 47.801,32.701 C48.046,32.3335 48.291,32.1585 49.411,32.141 C50.111,32.1235 51.0385,32.1235 51.616,32.1235 L51.616,38.371 C51.616,39.6835 51.616,40.9435 51.546,41.5735 C51.476,42.1685 51.4235,42.3785 51.091,42.431 C50.951,42.4485 50.846,42.4485 50.706,42.4485 C50.566,42.4485 50.5135,42.5185 50.5135,42.571 C50.5135,42.6585 50.5835,42.6935 50.776,42.6935 C51.231,42.6935 52.2635,42.641 52.3335,42.641 C52.4035,42.641 53.436,42.6935 54.3285,42.6935 C54.5035,42.6935 54.556,42.641 54.556,42.5535 C54.556,42.501 54.486,42.4485 54.346,42.4485 C54.206,42.4485 53.8735,42.431 53.6635,42.3785 C53.226,42.2735 53.191,42.0285 53.1385,41.6085 C53.0685,40.961 53.051,39.7185 53.051,38.371 L53.051,32.1235 Z M64.356,42.886 C68.0835,42.886 70.551,40.156 70.551,36.8135 C70.551,33.296 67.9085,31.231 64.4435,31.231 C60.121,31.231 58.3185,34.7135 58.3185,37.041 C58.3185,39.701 60.0685,42.886 64.356,42.886 Z M64.7935,42.291 C61.8535,42.291 59.946,40.016 59.946,36.586 C59.946,33.2785 61.906,31.7735 64.3385,31.7735 C66.736,31.7735 68.906,33.7335 68.906,37.251 C68.906,41.696 65.966,42.291 64.7935,42.291 Z M83.2035,39.8235 C83.2035,39.1935 83.2035,38.756 83.2385,38.2485 C83.2735,37.741 83.3785,37.426 83.7985,37.3735 C83.9385,37.356 83.9735,37.356 84.096,37.356 C84.2535,37.356 84.306,37.286 84.306,37.2335 C84.306,37.146 84.236,37.111 84.061,37.111 C83.5885,37.111 82.556,37.146 82.486,37.146 C82.416,37.146 81.401,37.111 80.701,37.111 C80.5085,37.111 80.4385,37.146 80.4385,37.2335 C80.4385,37.286 80.5085,37.356 80.6485,37.356 C80.7885,37.356 80.9635,37.3735 81.0685,37.391 C81.681,37.4785 81.7685,37.706 81.7685,38.861 L81.7685,41.381 C81.7685,41.626 81.646,41.801 81.471,41.906 C81.0685,42.116 80.2985,42.2035 79.8085,42.2035 C78.286,42.2035 76.991,41.696 75.836,40.576 C75.381,40.1385 74.2435,38.5985 74.2435,36.516 C74.2435,34.7835 74.821,33.4535 75.7135,32.771 C76.886,31.8785 77.9885,31.8435 78.9335,31.8435 C80.8935,31.8435 82.1535,32.491 82.556,33.0685 C82.8185,33.4535 82.8885,33.996 82.8885,34.1535 C82.906,34.2585 82.9235,34.3635 83.011,34.3635 C83.1335,34.3635 83.151,34.2935 83.151,34.0485 C83.151,32.5085 83.2735,31.9835 83.2735,31.7735 C83.2735,31.7035 83.2735,31.6335 83.1335,31.6335 C82.766,31.616 82.0835,31.5285 81.8035,31.476 C81.1735,31.371 80.421,31.231 79.301,31.231 C78.2335,31.231 76.746,31.336 75.3985,32.1235 C73.9635,32.981 72.756,34.6785 72.756,37.0585 C72.756,39.0535 73.701,40.5235 74.646,41.311 C76.431,42.7985 78.636,42.886 79.7735,42.886 C80.631,42.886 82.031,42.711 82.9935,42.221 C83.186,42.116 83.2035,42.0985 83.2035,41.3985 L83.2035,39.8235 Z M87.841,38.371 C87.841,39.6835 87.8585,41.1185 87.771,41.7485 C87.7185,42.1685 87.6135,42.361 87.316,42.4135 C87.176,42.4485 87.0535,42.4485 86.931,42.4485 C86.826,42.4485 86.721,42.501 86.721,42.5535 C86.721,42.6585 86.791,42.6935 86.966,42.6935 C87.4385,42.6935 88.2085,42.641 88.4885,42.641 C88.5585,42.641 89.5385,42.6935 90.4485,42.6935 C90.6235,42.6935 90.6935,42.641 90.6935,42.5535 C90.6935,42.501 90.6235,42.4485 90.466,42.4485 C90.326,42.4485 90.1335,42.431 89.9585,42.4135 C89.381,42.3435 89.3285,41.9935 89.276,41.5735 C89.1885,40.9435 89.1885,39.666 89.1885,38.266 L89.1885,38.021 C89.1885,37.951 89.206,37.9335 89.276,37.9335 L91.0785,37.951 C91.1835,37.951 91.2185,37.986 91.2885,38.056 C91.586,38.4235 92.286,39.3685 92.9685,40.2085 C93.8785,41.381 94.4035,42.1685 95.1385,42.4835 C95.5235,42.641 95.9085,42.6935 96.731,42.6935 L97.956,42.6935 C98.201,42.6935 98.271,42.6585 98.271,42.571 C98.271,42.501 98.2185,42.4485 98.0785,42.4485 C98.026,42.4485 97.6585,42.431 97.536,42.4135 C97.046,42.3435 96.521,42.2035 95.681,41.346 C94.7885,40.4185 93.7385,39.1235 92.461,37.5485 C93.8435,36.4285 94.316,35.2035 94.316,34.241 C94.316,33.051 93.5985,32.351 93.266,32.106 C92.4435,31.5285 91.376,31.441 90.396,31.441 C89.906,31.441 88.716,31.4935 88.5585,31.4935 C88.5235,31.4935 87.456,31.441 86.7035,31.441 C86.546,31.441 86.4935,31.4935 86.4935,31.5635 C86.4935,31.6335 86.5635,31.6685 86.686,31.6685 C86.826,31.6685 87.001,31.686 87.106,31.7035 C87.6485,31.8085 87.771,32.071 87.806,32.5435 C87.841,33.016 87.841,33.436 87.841,35.746 L87.841,38.371 Z M89.1885,32.2285 C89.1885,32.141 89.241,32.0885 89.2935,32.071 C89.5035,32.0185 89.871,31.9835 90.3085,31.9835 C91.866,31.9835 92.881,33.0335 92.881,34.941 C92.881,36.061 92.531,36.831 92.006,37.1635 C91.6385,37.4085 91.201,37.426 90.8335,37.426 C90.2035,37.426 89.5035,37.321 89.276,37.1985 C89.206,37.1635 89.1885,37.076 89.1885,36.9885 L89.1885,32.2285 Z M103.941,38.4235 C104.011,38.4235 104.046,38.4585 104.081,38.511 L105.4635,42.0285 C105.5685,42.291 105.4635,42.3785 105.3935,42.4135 C105.3235,42.431 105.271,42.4835 105.271,42.536 C105.271,42.6235 105.376,42.641 105.7085,42.6585 C106.881,42.6935 108.1935,42.6935 108.3685,42.6935 C108.561,42.6935 108.631,42.6585 108.631,42.571 C108.631,42.4835 108.5435,42.4485 108.421,42.4485 C108.2985,42.4485 108.0535,42.4485 107.826,42.361 C107.581,42.2735 107.0735,42.046 106.496,40.6635 C105.5685,38.476 103.1885,32.3685 102.9435,31.791 C102.751,31.301 102.681,31.231 102.5935,31.231 C102.471,31.231 102.4185,31.3185 102.226,31.826 L98.726,41.0485 C98.4285,41.7835 98.131,42.361 97.3785,42.431 C97.2735,42.4485 97.116,42.4485 97.0285,42.4485 C96.8885,42.4485 96.8185,42.501 96.8185,42.571 C96.8185,42.6585 96.906,42.6935 97.0985,42.6935 C97.8335,42.6935 98.6035,42.641 98.7785,42.641 C98.971,42.641 99.776,42.6935 100.161,42.6935 C100.2835,42.6935 100.4235,42.6585 100.4235,42.571 C100.4235,42.501 100.371,42.4485 100.2135,42.4485 L100.091,42.4485 C99.706,42.4485 99.5135,42.3085 99.5135,41.9935 C99.5135,41.7135 99.636,41.241 99.811,40.751 L100.581,38.5635 C100.616,38.476 100.6685,38.4235 100.756,38.4235 L103.941,38.4235 Z M100.931,37.811 C100.896,37.811 100.861,37.776 100.896,37.706 L102.2085,33.8385 C102.296,33.5935 102.3135,33.5935 102.401,33.8385 L103.7835,37.706 C103.801,37.7585 103.801,37.811 103.731,37.811 L100.931,37.811 Z M110.7835,38.371 C110.7835,39.6835 110.7835,40.9435 110.696,41.5735 C110.6435,41.9935 110.556,42.3435 110.241,42.396 C110.101,42.431 109.9085,42.466 109.786,42.466 C109.6985,42.466 109.6635,42.501 109.6635,42.5535 C109.6635,42.6585 109.751,42.6935 109.9085,42.6935 C110.3985,42.6935 111.431,42.641 111.4485,42.641 C111.536,42.641 112.516,42.6935 113.426,42.6935 C113.601,42.6935 113.671,42.641 113.671,42.5535 C113.671,42.501 113.636,42.466 113.566,42.466 C113.426,42.466 113.076,42.431 112.866,42.396 C112.3935,42.3435 112.306,41.9935 112.2535,41.5735 C112.1835,40.9435 112.1835,39.6835 112.1835,38.336 L112.1835,32.281 C112.1835,32.1585 112.201,32.036 112.2885,32.001 C112.3935,31.9485 112.656,31.9135 112.8835,31.9135 C113.1985,31.9135 114.196,31.826 115.0535,32.736 C115.8585,33.576 115.806,34.626 115.806,34.8535 C115.806,36.3935 114.651,37.3385 113.2685,37.3385 C112.936,37.3385 112.831,37.3385 112.831,37.4785 C112.831,37.5485 112.9185,37.5835 112.9885,37.5835 C113.076,37.601 113.251,37.601 113.321,37.601 C115.5085,37.601 117.1185,36.1835 117.1185,34.241 C117.1185,33.261 116.681,32.5785 116.3485,32.281 C116.1035,32.071 115.4035,31.441 113.4785,31.441 C112.761,31.441 111.8685,31.4935 111.501,31.4935 C111.396,31.4935 110.4335,31.441 109.681,31.441 C109.5235,31.441 109.436,31.476 109.436,31.581 C109.436,31.6335 109.506,31.6685 109.541,31.6685 C109.681,31.6685 109.961,31.686 110.0835,31.7035 C110.5735,31.8085 110.7135,32.0885 110.7485,32.5435 C110.7835,33.016 110.7835,33.331 110.7835,35.746 L110.7835,38.371 Z M122.1235,36.131 C122.071,36.131 122.0185,36.131 122.0185,36.0435 L122.0185,35.7285 C122.0185,33.4185 122.0185,33.0335 122.036,32.561 C122.071,32.071 122.176,31.7735 122.6135,31.7035 C122.806,31.6685 122.8585,31.6685 122.9635,31.6685 C123.0685,31.6685 123.1385,31.6335 123.1385,31.5635 C123.1385,31.476 123.051,31.441 122.876,31.441 C122.386,31.441 121.371,31.4935 121.301,31.4935 C121.0735,31.4935 120.2335,31.441 119.481,31.441 C119.306,31.441 119.2185,31.4585 119.2185,31.5635 C119.2185,31.616 119.2885,31.6685 119.411,31.6685 C119.551,31.6685 119.726,31.686 119.8835,31.7035 C120.391,31.756 120.5135,32.0885 120.5485,32.5435 C120.5835,33.016 120.5835,33.471 120.5835,35.781 L120.5835,38.371 C120.5835,39.806 120.601,40.9785 120.496,41.6085 C120.4435,41.9935 120.3735,42.326 120.0585,42.396 C119.9185,42.431 119.7785,42.4485 119.6385,42.4485 C119.481,42.4485 119.446,42.5185 119.446,42.571 C119.446,42.6585 119.551,42.6935 119.726,42.6935 C120.181,42.6935 121.2485,42.641 121.301,42.641 C121.3885,42.641 122.421,42.6935 123.3135,42.6935 C123.471,42.6935 123.541,42.641 123.541,42.571 C123.541,42.501 123.4535,42.4485 123.331,42.4485 C123.191,42.4485 122.9285,42.431 122.701,42.396 C122.246,42.3435 122.1585,41.9935 122.106,41.6085 C122.0185,40.9785 122.0185,39.841 122.0185,38.4235 L122.0185,36.866 C122.0185,36.7785 122.0535,36.761 122.106,36.761 L128.4585,36.761 C128.511,36.761 128.5635,36.796 128.5635,36.866 L128.5635,38.4235 C128.5635,39.841 128.5635,40.9435 128.476,41.5735 C128.4235,41.976 128.336,42.361 128.0385,42.4135 C127.8985,42.4485 127.776,42.4485 127.636,42.4485 C127.496,42.4485 127.4435,42.501 127.4435,42.5535 C127.4435,42.6585 127.531,42.6935 127.706,42.6935 C128.1785,42.6935 129.1935,42.641 129.2635,42.641 C129.351,42.641 130.366,42.6935 131.241,42.6935 C131.416,42.6935 131.5035,42.6585 131.5035,42.571 C131.5035,42.501 131.416,42.4485 131.276,42.4485 C131.1185,42.4485 130.891,42.431 130.6635,42.396 C130.2085,42.3435 130.121,41.9935 130.0685,41.5735 C129.9985,40.9435 129.9985,39.806 129.9985,38.371 L129.9985,35.746 C129.9985,33.436 129.9985,33.0335 130.016,32.561 C130.051,32.071 130.121,31.791 130.5935,31.721 C130.6985,31.7035 130.8385,31.686 130.9435,31.686 C131.0835,31.686 131.136,31.616 131.136,31.5635 C131.136,31.4585 131.031,31.441 130.856,31.441 C130.331,31.441 129.351,31.4935 129.281,31.4935 C129.211,31.4935 128.1785,31.441 127.4435,31.441 C127.286,31.441 127.1985,31.4585 127.1985,31.5635 C127.1985,31.6335 127.286,31.686 127.4085,31.686 C127.5485,31.686 127.7235,31.7035 127.846,31.721 C128.4235,31.826 128.4935,32.071 128.5285,32.5435 C128.5635,33.016 128.5635,33.4185 128.5635,35.7285 L128.5635,36.0435 C128.5635,36.131 128.511,36.131 128.4585,36.131 L122.1235,36.131 Z M137.086,40.156 C137.086,40.296 137.086,40.926 137.0335,41.556 C136.9985,41.976 136.876,42.3435 136.5785,42.396 C136.4385,42.431 136.281,42.4485 136.141,42.4485 C136.0185,42.4485 135.966,42.501 135.966,42.5535 C135.966,42.641 136.036,42.6935 136.211,42.6935 C136.701,42.6935 137.751,42.641 137.786,42.641 C137.8385,42.641 138.9235,42.6935 139.7985,42.6935 C139.956,42.6935 140.0085,42.641 140.0085,42.5535 C140.0085,42.501 139.956,42.4485 139.816,42.4485 C139.6935,42.4485 139.396,42.431 139.1685,42.3785 C138.626,42.2735 138.591,41.976 138.556,41.556 C138.521,40.926 138.521,40.2785 138.521,40.156 L138.521,38.8785 C138.521,38.4235 138.486,38.0385 138.696,37.496 C138.9585,36.8835 140.656,34.031 141.671,32.631 C141.951,32.246 142.056,32.0885 142.3185,31.9135 C142.5635,31.7385 142.826,31.7035 143.1935,31.686 C143.316,31.686 143.4035,31.6335 143.4035,31.546 C143.4035,31.4935 143.351,31.441 143.1935,31.441 C142.896,31.441 141.881,31.4935 141.6535,31.4935 C141.3735,31.4935 141.006,31.441 140.586,31.441 C140.411,31.441 140.376,31.4935 140.376,31.546 C140.376,31.616 140.4285,31.6685 140.5685,31.686 C140.761,31.721 140.971,31.721 140.971,31.9485 C140.971,32.141 140.901,32.2985 140.5685,32.876 C140.3235,33.3135 138.3635,36.516 138.0835,37.1285 C137.821,36.691 135.511,32.981 135.2835,32.5435 C135.161,32.316 135.056,32.141 135.056,31.966 C135.056,31.826 135.091,31.7385 135.336,31.686 C135.476,31.651 135.5285,31.616 135.5285,31.546 C135.5285,31.4935 135.476,31.441 135.301,31.441 C134.6535,31.441 134.076,31.4935 133.971,31.4935 C133.936,31.4935 132.606,31.441 132.326,31.441 C132.186,31.441 132.116,31.4935 132.116,31.546 C132.116,31.6335 132.2035,31.686 132.3085,31.686 C132.6585,31.7035 132.886,31.7735 133.131,31.9485 C133.376,32.141 133.551,32.351 134.0235,33.016 C134.566,33.7685 136.596,37.076 136.701,37.2685 C136.9635,37.7235 137.086,38.0385 137.086,38.8785 L137.086,40.156 Z"/>
</svg>
