<svg xmlns="http://www.w3.org/2000/svg" width="50" height="50" viewBox="0 0 50 50">
  <path fill="#3D3D3D" fill-rule="evenodd" d="M15,40 C12.25,40 10,42.25 10,45 C10,47.75 12.25,50 15,50 C17.75,50 20,47.75 20,45 C20,42.25 17.75,40 15,40 Z M0,0 L0,5 L5,5 L14,24 L10.5,30 C10.25,30.75 10,31.75 10,32.5 C10,35.25 12.25,37.5 15,37.5 L45,37.5 L45,32.5 L16,32.5 C15.75,32.5 15.5,32.25 15.5,32 L15.5,31.749902 L17.75,27.499902 L36.25,27.499902 C38.25,27.499902 39.75,26.499902 40.5,24.999902 L49.5,8.75 C50,8.25 50,8 50,7.5 C50,6 49,5 47.5,5 L10.5,5 L8.25,0 L0,0 Z M40,40 C37.25,40 35,42.25 35,45 C35,47.75 37.25,50 40,50 C42.75,50 45,47.75 45,45 C45,42.25 42.75,40 40,40 Z"/>
</svg>
